G04*
G04 #@! TF.GenerationSoftware,Altium Limited,Altium Designer,22.4.2 (48)*
G04*
G04 Layer_Physical_Order=1*
G04 Layer_Color=255*
%FSLAX25Y25*%
%MOIN*%
G70*
G04*
G04 #@! TF.SameCoordinates,FA252268-3CD0-4EC3-B91A-E4F5567C5AF4*
G04*
G04*
G04 #@! TF.FilePolarity,Positive*
G04*
G01*
G75*
G04:AMPARAMS|DCode=15|XSize=150mil|YSize=80mil|CornerRadius=20mil|HoleSize=0mil|Usage=FLASHONLY|Rotation=0.000|XOffset=0mil|YOffset=0mil|HoleType=Round|Shape=RoundedRectangle|*
%AMROUNDEDRECTD15*
21,1,0.15000,0.04000,0,0,0.0*
21,1,0.11000,0.08000,0,0,0.0*
1,1,0.04000,0.05500,-0.02000*
1,1,0.04000,-0.05500,-0.02000*
1,1,0.04000,-0.05500,0.02000*
1,1,0.04000,0.05500,0.02000*
%
%ADD15ROUNDEDRECTD15*%
%ADD16C,0.02000*%
%ADD17C,0.08000*%
%ADD18C,0.25000*%
%ADD19R,0.08000X0.08000*%
%ADD20C,0.04400*%
%ADD21C,0.03000*%
G36*
X119957Y277464D02*
X119957Y22536D01*
X11240Y-12094D01*
X9635Y-9457D01*
X10297Y-8795D01*
X11546Y-7075D01*
X12511Y-5182D01*
X13168Y-3161D01*
X13500Y-1063D01*
Y1063D01*
X13168Y3161D01*
X12511Y5182D01*
X11546Y7075D01*
X10297Y8795D01*
X8795Y10297D01*
X7075Y11546D01*
X5182Y12511D01*
X3161Y13168D01*
X1063Y13500D01*
X-1063D01*
X-3161Y13168D01*
X-5182Y12511D01*
X-7075Y11546D01*
X-8795Y10297D01*
X-10297Y8795D01*
X-11546Y7075D01*
X-12511Y5182D01*
X-13168Y3161D01*
X-13500Y1063D01*
Y-1063D01*
X-13168Y-3161D01*
X-12511Y-5182D01*
X-11546Y-7075D01*
X-10297Y-8795D01*
X-9635Y-9457D01*
X-11240Y-12094D01*
X-119957Y22536D01*
Y277464D01*
X-11240Y312094D01*
X-9635Y309457D01*
X-10297Y308795D01*
X-11546Y307076D01*
X-12511Y305182D01*
X-13168Y303161D01*
X-13500Y301062D01*
Y298938D01*
X-13168Y296839D01*
X-12511Y294818D01*
X-11546Y292924D01*
X-10297Y291205D01*
X-8795Y289703D01*
X-7075Y288454D01*
X-5182Y287489D01*
X-3161Y286832D01*
X-1063Y286500D01*
X1063D01*
X3161Y286832D01*
X5182Y287489D01*
X7075Y288454D01*
X8795Y289703D01*
X10297Y291205D01*
X11546Y292924D01*
X12511Y294818D01*
X13168Y296839D01*
X13500Y298938D01*
Y301062D01*
X13168Y303161D01*
X12511Y305182D01*
X11546Y307076D01*
X10297Y308795D01*
X9635Y309457D01*
X11240Y312094D01*
X119957Y277464D01*
D02*
G37*
%LPC*%
G36*
X45000Y279539D02*
X-10000D01*
X-10780Y279384D01*
X-11442Y278942D01*
X-28571Y261813D01*
X-29013Y261152D01*
X-29168Y260371D01*
Y260000D01*
X-35000D01*
Y250000D01*
X-35000D01*
X-35095Y247039D01*
X-44155D01*
X-63558Y266442D01*
X-64220Y266884D01*
X-65000Y267039D01*
X-76479D01*
X-76577Y267783D01*
X-76880Y268513D01*
X-77360Y269140D01*
X-77987Y269620D01*
X-78717Y269923D01*
X-79500Y270026D01*
X-90500D01*
X-91283Y269923D01*
X-92013Y269620D01*
X-92640Y269140D01*
X-92932Y268758D01*
X-94767Y268347D01*
X-95900Y268282D01*
X-96290Y268361D01*
X-96930Y269001D01*
X-98070Y269659D01*
X-99342Y270000D01*
X-100658D01*
X-101930Y269659D01*
X-103070Y269001D01*
X-104001Y268070D01*
X-104659Y266930D01*
X-105000Y265658D01*
Y264342D01*
X-104659Y263070D01*
X-104001Y261930D01*
X-103999Y261929D01*
X-103387Y260000D01*
X-103999Y258071D01*
X-104001Y258070D01*
X-104659Y256930D01*
X-105000Y255658D01*
Y254342D01*
X-104659Y253070D01*
X-104001Y251930D01*
X-103070Y250999D01*
X-101930Y250341D01*
X-100658Y250000D01*
X-99342D01*
X-98070Y250341D01*
X-96930Y250999D01*
X-96290Y251639D01*
X-95900Y251718D01*
X-94767Y251654D01*
X-92932Y251242D01*
X-92640Y250860D01*
X-92013Y250379D01*
X-91283Y250077D01*
X-90500Y249974D01*
X-79500D01*
X-78717Y250077D01*
X-77987Y250379D01*
X-77360Y250860D01*
X-76880Y251487D01*
X-76577Y252217D01*
X-76479Y252961D01*
X-70845D01*
X-51442Y233558D01*
X-50780Y233116D01*
X-50000Y232961D01*
X-34596D01*
X-34001Y231930D01*
X-33999Y231928D01*
X-33387Y230000D01*
X-33999Y228071D01*
X-34001Y228070D01*
X-34596Y227039D01*
X-54155D01*
X-63558Y236442D01*
X-64220Y236884D01*
X-65000Y237039D01*
X-76479D01*
X-76577Y237783D01*
X-76880Y238513D01*
X-77360Y239140D01*
X-77987Y239620D01*
X-78717Y239923D01*
X-79500Y240026D01*
X-90500D01*
X-91283Y239923D01*
X-92013Y239620D01*
X-92640Y239140D01*
X-92932Y238758D01*
X-94767Y238347D01*
X-95900Y238282D01*
X-96290Y238361D01*
X-96930Y239001D01*
X-98070Y239659D01*
X-99342Y240000D01*
X-100658D01*
X-101930Y239659D01*
X-103070Y239001D01*
X-104001Y238070D01*
X-104659Y236930D01*
X-105000Y235658D01*
Y234342D01*
X-104659Y233070D01*
X-104001Y231930D01*
X-103070Y230999D01*
X-101930Y230341D01*
X-100658Y230000D01*
X-99342D01*
X-98070Y230341D01*
X-96930Y230999D01*
X-96290Y231639D01*
X-95900Y231718D01*
X-94767Y231653D01*
X-92932Y231242D01*
X-92640Y230860D01*
X-92013Y230380D01*
X-91283Y230077D01*
X-90500Y229974D01*
X-79500D01*
X-78717Y230077D01*
X-77987Y230380D01*
X-77360Y230860D01*
X-76880Y231487D01*
X-76577Y232217D01*
X-76479Y232961D01*
X-65845D01*
X-56442Y223558D01*
X-56442Y223558D01*
X-55780Y223116D01*
X-55000Y222961D01*
X-55000Y222961D01*
X-34596D01*
X-34001Y221930D01*
X-33999Y221929D01*
X-33387Y220000D01*
X-33999Y218072D01*
X-34001Y218070D01*
X-34596Y217039D01*
X-76479D01*
X-76577Y217783D01*
X-76880Y218513D01*
X-77360Y219140D01*
X-77987Y219620D01*
X-78717Y219923D01*
X-79500Y220026D01*
X-90500D01*
X-91283Y219923D01*
X-92013Y219620D01*
X-92640Y219140D01*
X-92932Y218758D01*
X-94767Y218347D01*
X-95900Y218282D01*
X-96290Y218361D01*
X-96930Y219001D01*
X-98070Y219659D01*
X-99342Y220000D01*
X-100658D01*
X-101930Y219659D01*
X-103070Y219001D01*
X-104001Y218070D01*
X-104659Y216930D01*
X-105000Y215658D01*
Y214342D01*
X-104659Y213070D01*
X-104001Y211930D01*
X-103070Y210999D01*
X-101930Y210341D01*
X-100658Y210000D01*
X-99342D01*
X-98070Y210341D01*
X-96930Y210999D01*
X-96290Y211639D01*
X-95900Y211718D01*
X-94767Y211653D01*
X-92932Y211242D01*
X-92640Y210860D01*
X-92013Y210380D01*
X-91283Y210077D01*
X-90500Y209974D01*
X-79500D01*
X-78717Y210077D01*
X-77987Y210380D01*
X-77360Y210860D01*
X-76880Y211487D01*
X-76577Y212217D01*
X-76479Y212961D01*
X-34596D01*
X-34001Y211930D01*
X-33999Y211929D01*
X-33387Y210000D01*
X-33999Y208071D01*
X-34001Y208070D01*
X-34596Y207039D01*
X-55000D01*
X-55000Y207039D01*
X-55780Y206884D01*
X-56442Y206442D01*
X-56442Y206442D01*
X-65845Y197039D01*
X-76479D01*
X-76577Y197783D01*
X-76880Y198513D01*
X-77360Y199140D01*
X-77987Y199620D01*
X-78717Y199923D01*
X-79500Y200026D01*
X-90500D01*
X-91283Y199923D01*
X-92013Y199620D01*
X-92640Y199140D01*
X-92932Y198758D01*
X-94767Y198346D01*
X-95900Y198282D01*
X-96290Y198361D01*
X-96930Y199001D01*
X-98070Y199659D01*
X-99342Y200000D01*
X-100658D01*
X-101930Y199659D01*
X-103070Y199001D01*
X-104001Y198070D01*
X-104659Y196930D01*
X-105000Y195658D01*
Y194342D01*
X-104659Y193070D01*
X-104001Y191930D01*
X-103070Y190999D01*
X-101930Y190341D01*
X-100658Y190000D01*
X-99342D01*
X-98070Y190341D01*
X-96930Y190999D01*
X-96290Y191639D01*
X-95900Y191718D01*
X-94767Y191654D01*
X-92932Y191242D01*
X-92640Y190860D01*
X-92013Y190380D01*
X-91283Y190077D01*
X-90500Y189974D01*
X-79500D01*
X-78717Y190077D01*
X-77987Y190380D01*
X-77360Y190860D01*
X-76880Y191487D01*
X-76577Y192217D01*
X-76479Y192961D01*
X-65000D01*
X-64220Y193116D01*
X-63558Y193558D01*
X-54155Y202961D01*
X-34596D01*
X-34001Y201930D01*
X-33999Y201928D01*
X-33387Y200000D01*
X-33999Y198072D01*
X-34001Y198070D01*
X-34596Y197039D01*
X-50000D01*
X-50780Y196884D01*
X-51442Y196442D01*
X-70845Y177039D01*
X-76479D01*
X-76577Y177783D01*
X-76880Y178513D01*
X-77360Y179140D01*
X-77987Y179621D01*
X-78717Y179923D01*
X-79500Y180026D01*
X-90500D01*
X-91283Y179923D01*
X-92013Y179621D01*
X-92640Y179140D01*
X-92932Y178758D01*
X-94767Y178347D01*
X-95900Y178282D01*
X-96290Y178361D01*
X-96930Y179001D01*
X-98070Y179659D01*
X-99342Y180000D01*
X-100658D01*
X-101930Y179659D01*
X-103070Y179001D01*
X-104001Y178070D01*
X-104659Y176930D01*
X-105000Y175658D01*
Y174342D01*
X-104659Y173070D01*
X-104001Y171930D01*
X-103999Y171929D01*
X-103387Y170000D01*
X-103999Y168071D01*
X-104001Y168070D01*
X-104659Y166930D01*
X-105000Y165658D01*
Y164342D01*
X-104659Y163070D01*
X-104001Y161930D01*
X-103070Y160999D01*
X-101930Y160341D01*
X-100658Y160000D01*
X-99342D01*
X-98070Y160341D01*
X-96930Y160999D01*
X-96290Y161639D01*
X-95900Y161718D01*
X-94767Y161653D01*
X-92932Y161242D01*
X-92640Y160860D01*
X-92013Y160380D01*
X-91283Y160077D01*
X-90500Y159974D01*
X-79500D01*
X-78717Y160077D01*
X-77987Y160380D01*
X-77360Y160860D01*
X-76880Y161487D01*
X-76577Y162217D01*
X-76479Y162961D01*
X-65000D01*
X-64220Y163116D01*
X-63558Y163558D01*
X-44155Y182961D01*
X-34596D01*
X-34001Y181930D01*
X-33999Y181929D01*
X-33387Y180000D01*
X-33999Y178071D01*
X-34001Y178070D01*
X-34596Y177039D01*
X-40000D01*
X-40000Y177039D01*
X-40780Y176884D01*
X-41442Y176442D01*
X-70845Y147039D01*
X-76479D01*
X-76577Y147783D01*
X-76880Y148513D01*
X-77360Y149140D01*
X-77987Y149620D01*
X-78717Y149923D01*
X-79500Y150026D01*
X-90500D01*
X-91283Y149923D01*
X-92013Y149620D01*
X-92640Y149140D01*
X-92932Y148758D01*
X-94767Y148346D01*
X-95900Y148282D01*
X-96290Y148361D01*
X-96930Y149001D01*
X-98070Y149659D01*
X-99342Y150000D01*
X-100658D01*
X-101930Y149659D01*
X-103070Y149001D01*
X-104001Y148070D01*
X-104659Y146930D01*
X-105000Y145658D01*
Y144342D01*
X-104659Y143070D01*
X-104001Y141930D01*
X-103070Y140999D01*
X-101930Y140341D01*
X-100658Y140000D01*
X-99342D01*
X-98070Y140341D01*
X-96930Y140999D01*
X-96290Y141639D01*
X-95900Y141718D01*
X-94767Y141654D01*
X-92932Y141242D01*
X-92640Y140860D01*
X-92013Y140380D01*
X-91283Y140077D01*
X-90500Y139974D01*
X-79500D01*
X-78717Y140077D01*
X-77987Y140380D01*
X-77360Y140860D01*
X-76880Y141487D01*
X-76577Y142217D01*
X-76479Y142961D01*
X-70000D01*
X-69220Y143116D01*
X-68558Y143558D01*
X-39155Y172961D01*
X-34596D01*
X-34001Y171930D01*
X-33070Y170999D01*
X-31930Y170341D01*
X-30658Y170000D01*
X-29342D01*
X-28070Y170341D01*
X-27539Y170647D01*
X-25544Y169925D01*
X-24539Y169147D01*
Y133345D01*
X-27884Y130000D01*
X-35000D01*
Y120000D01*
X-35000D01*
X-35095Y117039D01*
X-59155D01*
X-68558Y126442D01*
X-69220Y126884D01*
X-70000Y127039D01*
X-76479D01*
X-76577Y127783D01*
X-76880Y128513D01*
X-77360Y129140D01*
X-77987Y129621D01*
X-78717Y129923D01*
X-79500Y130026D01*
X-90500D01*
X-91283Y129923D01*
X-92013Y129621D01*
X-92640Y129140D01*
X-92932Y128758D01*
X-94767Y128347D01*
X-95900Y128282D01*
X-96290Y128361D01*
X-96930Y129001D01*
X-98070Y129659D01*
X-99342Y130000D01*
X-100658D01*
X-101930Y129659D01*
X-103070Y129001D01*
X-104001Y128070D01*
X-104659Y126930D01*
X-105000Y125658D01*
Y124342D01*
X-104659Y123070D01*
X-104001Y121930D01*
X-103999Y121929D01*
X-103387Y120000D01*
X-103999Y118071D01*
X-104001Y118070D01*
X-104659Y116930D01*
X-105000Y115658D01*
Y114342D01*
X-104659Y113070D01*
X-104001Y111930D01*
X-103999Y111928D01*
X-103387Y110000D01*
X-103999Y108071D01*
X-104001Y108070D01*
X-104659Y106930D01*
X-105000Y105658D01*
Y104342D01*
X-104659Y103070D01*
X-104001Y101930D01*
X-103999Y101928D01*
X-103387Y100000D01*
X-103999Y98071D01*
X-104001Y98070D01*
X-104659Y96930D01*
X-105000Y95658D01*
Y94342D01*
X-104659Y93070D01*
X-104001Y91930D01*
X-103999Y91928D01*
X-103387Y90000D01*
X-103999Y88072D01*
X-104001Y88070D01*
X-104659Y86930D01*
X-105000Y85658D01*
Y84342D01*
X-104659Y83070D01*
X-104001Y81930D01*
X-103999Y81928D01*
X-103387Y80000D01*
X-103999Y78071D01*
X-104001Y78070D01*
X-104659Y76930D01*
X-105000Y75658D01*
Y74342D01*
X-104659Y73070D01*
X-104001Y71930D01*
X-103999Y71929D01*
X-103387Y70000D01*
X-103999Y68072D01*
X-104001Y68070D01*
X-104659Y66930D01*
X-105000Y65658D01*
Y64342D01*
X-104659Y63070D01*
X-104001Y61930D01*
X-103999Y61928D01*
X-103387Y60000D01*
X-103999Y58072D01*
X-104001Y58070D01*
X-104659Y56930D01*
X-105000Y55658D01*
Y54342D01*
X-104659Y53070D01*
X-104001Y51930D01*
X-103070Y50999D01*
X-101930Y50341D01*
X-100658Y50000D01*
X-99342D01*
X-98070Y50341D01*
X-96930Y50999D01*
X-96290Y51639D01*
X-95900Y51718D01*
X-94767Y51653D01*
X-92932Y51242D01*
X-92640Y50860D01*
X-92013Y50380D01*
X-91283Y50077D01*
X-90500Y49974D01*
X-79500D01*
X-78717Y50077D01*
X-77987Y50380D01*
X-77360Y50860D01*
X-76880Y51487D01*
X-76577Y52217D01*
X-76479Y52961D01*
X-70845D01*
X-61442Y43558D01*
X-61442Y43558D01*
X-60780Y43116D01*
X-60000Y42961D01*
X-60000Y42961D01*
X-34596D01*
X-34001Y41930D01*
X-33070Y40999D01*
X-31930Y40341D01*
X-30658Y40000D01*
X-29342D01*
X-28070Y40341D01*
X-26930Y40999D01*
X-25999Y41930D01*
X-25341Y43070D01*
X-25000Y44342D01*
Y45658D01*
X-25341Y46930D01*
X-25999Y48070D01*
X-26000Y48072D01*
X-26613Y50000D01*
X-26000Y51929D01*
X-25999Y51930D01*
X-25341Y53070D01*
X-25000Y54342D01*
Y55658D01*
X-25341Y56930D01*
X-25999Y58070D01*
X-26000Y58072D01*
X-26613Y60000D01*
X-26000Y61928D01*
X-25999Y61930D01*
X-25341Y63070D01*
X-25000Y64342D01*
Y65658D01*
X-25341Y66930D01*
X-25999Y68070D01*
X-26000Y68072D01*
X-26613Y70000D01*
X-26000Y71929D01*
X-25999Y71930D01*
X-25341Y73070D01*
X-25000Y74342D01*
Y75658D01*
X-25341Y76930D01*
X-25999Y78070D01*
X-26000Y78071D01*
X-26613Y80000D01*
X-26000Y81928D01*
X-25999Y81930D01*
X-25341Y83070D01*
X-25000Y84342D01*
Y85658D01*
X-25341Y86930D01*
X-25999Y88070D01*
X-26000Y88072D01*
X-26613Y90000D01*
X-26000Y91928D01*
X-25999Y91930D01*
X-25341Y93070D01*
X-25000Y94342D01*
Y95658D01*
X-25341Y96930D01*
X-25999Y98070D01*
X-26000Y98071D01*
X-26613Y100000D01*
X-26000Y101928D01*
X-25999Y101930D01*
X-25341Y103070D01*
X-25000Y104342D01*
Y105658D01*
X-25341Y106930D01*
X-25999Y108070D01*
X-26000Y108071D01*
X-26613Y110000D01*
X-26000Y111928D01*
X-25999Y111930D01*
X-25341Y113070D01*
X-25000Y114342D01*
Y115658D01*
X-25341Y116930D01*
X-25381Y117000D01*
X-25000Y120000D01*
X-25000Y120000D01*
Y127116D01*
X-22539Y129577D01*
X-19539Y128334D01*
Y62500D01*
X-19384Y61720D01*
X-18942Y61058D01*
X-4692Y46808D01*
X-5000Y45658D01*
Y44342D01*
X-4659Y43070D01*
X-4001Y41930D01*
X-3999Y41928D01*
X-3387Y40000D01*
X-3999Y38072D01*
X-4001Y38070D01*
X-4659Y36930D01*
X-5000Y35658D01*
Y34342D01*
X-4659Y33070D01*
X-4001Y31930D01*
X-3070Y30999D01*
X-1930Y30341D01*
X-658Y30000D01*
X658D01*
X1930Y30341D01*
X3070Y30999D01*
X4001Y31930D01*
X4659Y33070D01*
X5000Y34342D01*
Y35658D01*
X4659Y36930D01*
X4001Y38070D01*
X3999Y38072D01*
X3387Y40000D01*
X3999Y41928D01*
X4001Y41930D01*
X4659Y43070D01*
X5000Y44342D01*
Y45658D01*
X4659Y46930D01*
X4001Y48070D01*
X3999Y48072D01*
X3387Y50000D01*
X3999Y51929D01*
X4001Y51930D01*
X4659Y53070D01*
X5000Y54342D01*
Y55658D01*
X4659Y56930D01*
X4001Y58070D01*
X3999Y58072D01*
X3387Y60000D01*
X3999Y61928D01*
X4001Y61930D01*
X4659Y63070D01*
X5000Y64342D01*
Y65493D01*
X9968Y70461D01*
X62500D01*
X63280Y70616D01*
X63942Y71058D01*
X83942Y91058D01*
X84384Y91720D01*
X84539Y92500D01*
Y146655D01*
X92066Y154182D01*
X92506Y154206D01*
X95310Y153184D01*
X95341Y153070D01*
X95999Y151930D01*
X96000Y151928D01*
X96613Y150000D01*
X96000Y148072D01*
X95999Y148070D01*
X95341Y146930D01*
X95000Y145658D01*
Y144342D01*
X95341Y143070D01*
X95999Y141930D01*
X96000Y141929D01*
X96613Y140000D01*
X96000Y138072D01*
X95999Y138070D01*
X95341Y136930D01*
X95000Y135658D01*
Y134342D01*
X95341Y133070D01*
X95999Y131930D01*
X96000Y131929D01*
X96613Y130000D01*
X96000Y128071D01*
X95999Y128070D01*
X95341Y126930D01*
X95000Y125658D01*
Y124342D01*
X95341Y123070D01*
X95999Y121930D01*
X96000Y121929D01*
X96613Y120000D01*
X96000Y118071D01*
X95999Y118070D01*
X95341Y116930D01*
X95000Y115658D01*
Y114342D01*
X95341Y113070D01*
X95999Y111930D01*
X96930Y110999D01*
X98070Y110341D01*
X99342Y110000D01*
X100658D01*
X101930Y110341D01*
X103070Y110999D01*
X104001Y111930D01*
X104659Y113070D01*
X105000Y114342D01*
Y115658D01*
X104692Y116808D01*
X108942Y121058D01*
X109384Y121720D01*
X109539Y122500D01*
Y257500D01*
X109384Y258280D01*
X108942Y258942D01*
X103942Y263942D01*
X103280Y264384D01*
X102500Y264539D01*
X97500D01*
X96720Y264384D01*
X96058Y263942D01*
X91058Y258942D01*
X90616Y258280D01*
X90461Y257500D01*
Y218345D01*
X61071Y188954D01*
X58942Y191058D01*
X59384Y191720D01*
X59539Y192500D01*
Y265000D01*
X59384Y265780D01*
X58942Y266442D01*
X46442Y278942D01*
X45780Y279384D01*
X45000Y279539D01*
D02*
G37*
%LPD*%
G36*
X-19539Y260834D02*
Y251666D01*
X-22539Y250423D01*
X-25000Y252884D01*
Y259616D01*
X-22539Y262077D01*
X-19539Y260834D01*
D02*
G37*
G36*
X41844Y262772D02*
X40696Y260000D01*
X35000D01*
Y250000D01*
X35000D01*
X35381Y247000D01*
X35341Y246930D01*
X35000Y245658D01*
Y244342D01*
X35341Y243070D01*
X35999Y241930D01*
X36000Y241929D01*
X36613Y240000D01*
X36000Y238071D01*
X35999Y238070D01*
X35341Y236930D01*
X35000Y235658D01*
Y234342D01*
X35341Y233070D01*
X35999Y231930D01*
X36930Y230999D01*
X38070Y230341D01*
X39342Y230000D01*
X40658D01*
X41930Y230341D01*
X42461Y230647D01*
X44456Y229925D01*
X45461Y229147D01*
Y220853D01*
X44456Y220075D01*
X42461Y219353D01*
X41930Y219659D01*
X40658Y220000D01*
X39342D01*
X38192Y219692D01*
X9539Y248345D01*
Y257500D01*
X9384Y258280D01*
X8942Y258942D01*
X5423Y262461D01*
X6666Y265461D01*
X39155D01*
X41844Y262772D01*
D02*
G37*
G36*
X98070Y250341D02*
X99342Y250000D01*
X100658D01*
X101930Y250341D01*
X102461Y250647D01*
X104456Y249925D01*
X105461Y249147D01*
Y240853D01*
X104456Y240075D01*
X102461Y239353D01*
X101930Y239659D01*
X100658Y240000D01*
X99342D01*
X98070Y239659D01*
X97539Y239353D01*
X95544Y240075D01*
X94539Y240853D01*
Y249147D01*
X95544Y249925D01*
X97539Y250647D01*
X98070Y250341D01*
D02*
G37*
G36*
X7934Y124182D02*
X29577Y102539D01*
X28334Y99539D01*
X18345D01*
X4692Y113192D01*
X5000Y114342D01*
Y115658D01*
X4659Y116930D01*
X4001Y118070D01*
X3999Y118071D01*
X3387Y120000D01*
X3999Y121929D01*
X4001Y121930D01*
X4659Y123070D01*
X4690Y123184D01*
X7494Y124206D01*
X7934Y124182D01*
D02*
G37*
G36*
X-4692Y176808D02*
X-5000Y175658D01*
Y174342D01*
X-4659Y173070D01*
X-4001Y171930D01*
X-3999Y171929D01*
X-3387Y170000D01*
X-3999Y168071D01*
X-4001Y168070D01*
X-4659Y166930D01*
X-5000Y165658D01*
Y164342D01*
X-4659Y163070D01*
X-4001Y161930D01*
X-3070Y160999D01*
X-1930Y160341D01*
X-658Y160000D01*
X461D01*
Y132500D01*
X-212Y130997D01*
X-1663Y129731D01*
X-1930Y129659D01*
X-3070Y129001D01*
X-4001Y128070D01*
X-4659Y126930D01*
X-5000Y125658D01*
Y124342D01*
X-4659Y123070D01*
X-4001Y121930D01*
X-3999Y121929D01*
X-3387Y120000D01*
X-3999Y118071D01*
X-4001Y118070D01*
X-4659Y116930D01*
X-5000Y115658D01*
Y114342D01*
X-4659Y113070D01*
X-4001Y111930D01*
X-3999Y111928D01*
X-3387Y110000D01*
X-3999Y108071D01*
X-4001Y108070D01*
X-4659Y106930D01*
X-5000Y105658D01*
Y104342D01*
X-4659Y103070D01*
X-4001Y101930D01*
X-3999Y101928D01*
X-3387Y100000D01*
X-3999Y98071D01*
X-4001Y98070D01*
X-4659Y96930D01*
X-5000Y95658D01*
Y94342D01*
X-4659Y93070D01*
X-4001Y91930D01*
X-3999Y91928D01*
X-3387Y90000D01*
X-3999Y88072D01*
X-4001Y88070D01*
X-4659Y86930D01*
X-5000Y85658D01*
Y84342D01*
X-4659Y83070D01*
X-4001Y81930D01*
X-3999Y81928D01*
X-3387Y80000D01*
X-3999Y78071D01*
X-4001Y78070D01*
X-4659Y76930D01*
X-5000Y75658D01*
Y74342D01*
X-4659Y73070D01*
X-4001Y71930D01*
X-3999Y71929D01*
X-3387Y70000D01*
X-3999Y68072D01*
X-4001Y68070D01*
X-4659Y66930D01*
X-4690Y66816D01*
X-7494Y65794D01*
X-7934Y65818D01*
X-10461Y68345D01*
X-10461Y178334D01*
X-7461Y179577D01*
X-4692Y176808D01*
D02*
G37*
D15*
X-85000Y45000D02*
D03*
Y135000D02*
D03*
Y55000D02*
D03*
Y65000D02*
D03*
Y75000D02*
D03*
Y85000D02*
D03*
Y145000D02*
D03*
Y95000D02*
D03*
Y105000D02*
D03*
Y115000D02*
D03*
Y125000D02*
D03*
Y35000D02*
D03*
Y155000D02*
D03*
Y245000D02*
D03*
Y225000D02*
D03*
Y205000D02*
D03*
Y185000D02*
D03*
Y165000D02*
D03*
Y255000D02*
D03*
Y235000D02*
D03*
Y195000D02*
D03*
Y175000D02*
D03*
Y215000D02*
D03*
Y265000D02*
D03*
D16*
X-27129Y257871D02*
Y260371D01*
X-30000Y255000D02*
X-27129Y257871D01*
Y260371D02*
X-10000Y277500D01*
X45000D01*
X57500Y265000D01*
Y192500D02*
Y265000D01*
X62500Y72500D02*
X82500Y92500D01*
X9124Y72500D02*
X62500D01*
X0Y65000D02*
X1624D01*
X9124Y72500D01*
X1624Y75000D02*
X4124Y77500D01*
X60000D02*
X77500Y95000D01*
X4124Y77500D02*
X60000D01*
X0Y75000D02*
X1624D01*
X0Y115000D02*
X17500Y97500D01*
X50000D01*
X12500Y92500D02*
X52500D01*
X0Y105000D02*
X12500Y92500D01*
X7500Y87500D02*
X55000D01*
X0Y95000D02*
X7500Y87500D01*
X0Y85000D02*
X1624D01*
X4124Y82500D01*
X57500D01*
X82500Y92500D02*
Y147500D01*
X77500Y95000D02*
Y152500D01*
X57500Y82500D02*
X72500Y97500D01*
Y157500D01*
X55000Y87500D02*
X67500Y100000D01*
Y162500D01*
X62500Y102500D02*
Y167500D01*
X52500Y92500D02*
X62500Y102500D01*
X50000Y97500D02*
X57500Y105000D01*
Y172500D01*
X82500Y147500D02*
X100000Y165000D01*
X77500Y152500D02*
X100000Y175000D01*
X72500Y157500D02*
X100000Y185000D01*
X67500Y162500D02*
X100000Y195000D01*
X62500Y167500D02*
X100000Y205000D01*
X57500Y172500D02*
X100000Y215000D01*
X52500Y177500D02*
X92500Y217500D01*
X52500Y107500D02*
Y177500D01*
X47500Y102500D02*
X52500Y107500D01*
X92500Y217500D02*
Y257500D01*
X40000Y175000D02*
X57500Y192500D01*
X97500Y262500D02*
X102500D01*
X92500Y257500D02*
X97500Y262500D01*
X102500D02*
X107500Y257500D01*
Y122500D02*
Y257500D01*
X100000Y115000D02*
X107500Y122500D01*
X-30000Y125000D02*
X-22500Y132500D01*
X-60000Y115000D02*
X-30000D01*
X-85000Y125000D02*
X-70000D01*
X-60000Y115000D01*
Y105000D02*
X-30000D01*
X-85000Y115000D02*
X-70000D01*
X-60000Y105000D01*
Y95000D02*
X-30000D01*
X-85000Y105000D02*
X-70000D01*
X-60000Y95000D01*
Y85000D02*
X-30000D01*
X-85000Y95000D02*
X-70000D01*
X-60000Y85000D01*
Y75000D02*
X-30000D01*
X-85000Y85000D02*
X-70000D01*
X-60000Y75000D01*
Y65000D02*
X-30000D01*
X-70000Y75000D02*
X-60000Y65000D01*
X-85000Y75000D02*
X-70000D01*
X-60000Y55000D02*
X-30000D01*
X-70000Y65000D02*
X-60000Y55000D01*
X-85000Y65000D02*
X-70000D01*
X-60000Y45000D02*
X-30000D01*
X-70000Y55000D02*
X-60000Y45000D01*
X-85000Y55000D02*
X-70000D01*
X-17500Y62500D02*
X0Y45000D01*
X-12500Y67500D02*
X0Y55000D01*
Y163376D02*
X2500Y160876D01*
Y132500D02*
Y160876D01*
Y132500D02*
X32500Y102500D01*
X0Y163376D02*
Y165000D01*
X32500Y102500D02*
X47500D01*
X45000Y107500D02*
X47500Y110000D01*
X7500Y137500D02*
X37500Y107500D01*
X45000D01*
X47500Y110000D02*
Y157500D01*
X52500Y197500D02*
Y262500D01*
X42500Y272500D02*
X52500Y262500D01*
X-7500Y272500D02*
X42500D01*
X47500Y202500D02*
Y260000D01*
X40000Y267500D02*
X47500Y260000D01*
X-5000Y267500D02*
X40000D01*
X-17500Y62500D02*
X-17500Y262500D01*
X-7500Y272500D01*
X-12500Y67500D02*
X-12500Y260000D01*
X-5000Y267500D01*
X2500Y262500D02*
X7500Y257500D01*
Y247500D02*
Y257500D01*
X-2500Y262500D02*
X2500D01*
X-7500Y257500D02*
X-2500Y262500D01*
X-7500Y182500D02*
Y257500D01*
X7500Y137500D02*
Y177500D01*
X40000Y185000D02*
X52500Y197500D01*
X40000Y195000D02*
X47500Y202500D01*
X40000Y165000D02*
X47500Y157500D01*
X7500Y247500D02*
X40000Y215000D01*
X0Y185000D02*
X7500Y177500D01*
X12500Y142500D02*
Y182500D01*
X0Y195000D02*
X12500Y182500D01*
Y142500D02*
X40000Y115000D01*
X17500Y147500D02*
Y187500D01*
X0Y205000D02*
X17500Y187500D01*
Y147500D02*
X40000Y125000D01*
X0Y215000D02*
X22500Y192500D01*
Y152500D02*
Y192500D01*
Y152500D02*
X40000Y135000D01*
X27500Y157500D02*
X40000Y145000D01*
X27500Y157500D02*
Y197500D01*
X0Y225000D02*
X27500Y197500D01*
X0Y235000D02*
X32500Y202500D01*
Y162500D02*
X40000Y155000D01*
X32500Y162500D02*
Y202500D01*
X-22500Y132500D02*
X-22500Y247500D01*
X-30000Y255000D02*
X-22500Y247500D01*
X-7500Y182500D02*
X0Y175000D01*
Y245000D02*
X40000Y205000D01*
X-85000Y145000D02*
X-70000D01*
X-40000Y175000D02*
X-30000D01*
X-70000Y145000D02*
X-40000Y175000D01*
X-85000Y165000D02*
X-65000D01*
X-45000Y185000D02*
X-30000D01*
X-65000Y165000D02*
X-45000Y185000D01*
X-65000Y195000D02*
X-55000Y205000D01*
X-85000Y195000D02*
X-65000D01*
X-55000Y205000D02*
X-30000D01*
X-70000Y175000D02*
X-50000Y195000D01*
X-85000Y175000D02*
X-70000D01*
X-50000Y195000D02*
X-30000D01*
X-100000Y175000D02*
X-85000D01*
X-65000Y235000D02*
X-55000Y225000D01*
X-85000Y235000D02*
X-65000D01*
X-55000Y225000D02*
X-30000D01*
X-45000Y245000D02*
X-30000D01*
X-65000Y265000D02*
X-45000Y245000D01*
X-85000Y265000D02*
X-65000D01*
X-50000Y235000D02*
X-30000D01*
X-70000Y255000D02*
X-50000Y235000D01*
X-85000Y255000D02*
X-70000D01*
X-85000Y215000D02*
X-30000D01*
X-100000Y35000D02*
X-85000D01*
X-100000Y45000D02*
X-85000D01*
X-100000Y135000D02*
X-85000D01*
X-100000Y145000D02*
X-85000D01*
X-100000Y155000D02*
X-85000D01*
X-100000Y165000D02*
X-85000D01*
X-100000Y185000D02*
X-85000D01*
X-100000Y195000D02*
X-85000D01*
X-100000Y205000D02*
X-85000D01*
X-100000Y215000D02*
X-85000D01*
X-100000Y225000D02*
X-85000D01*
X-100000Y245000D02*
X-85000D01*
X-100000Y235000D02*
X-85000D01*
X-100000Y255000D02*
X-85000D01*
X-100000Y265000D02*
X-85000D01*
X-100000Y55000D02*
X-85000D01*
X-100000Y65000D02*
X-85000D01*
X-100000Y75000D02*
X-85000D01*
X-100000Y85000D02*
X-85000D01*
X-100000Y95000D02*
X-85000D01*
X-100000Y105000D02*
X-85000D01*
X-100000Y115000D02*
X-85000D01*
X-100000Y125000D02*
X-85000D01*
D17*
X-100000D02*
D03*
Y115000D02*
D03*
Y105000D02*
D03*
Y95000D02*
D03*
Y175000D02*
D03*
Y195000D02*
D03*
Y215000D02*
D03*
Y235000D02*
D03*
Y255000D02*
D03*
Y145000D02*
D03*
Y165000D02*
D03*
Y35000D02*
D03*
Y85000D02*
D03*
Y75000D02*
D03*
Y65000D02*
D03*
Y55000D02*
D03*
Y265000D02*
D03*
Y185000D02*
D03*
Y205000D02*
D03*
Y225000D02*
D03*
Y245000D02*
D03*
Y135000D02*
D03*
Y155000D02*
D03*
Y45000D02*
D03*
X100000Y115000D02*
D03*
Y125000D02*
D03*
Y135000D02*
D03*
Y145000D02*
D03*
Y155000D02*
D03*
Y165000D02*
D03*
Y175000D02*
D03*
Y185000D02*
D03*
Y195000D02*
D03*
Y205000D02*
D03*
Y215000D02*
D03*
Y225000D02*
D03*
Y235000D02*
D03*
Y245000D02*
D03*
Y255000D02*
D03*
X40000Y115000D02*
D03*
Y125000D02*
D03*
Y135000D02*
D03*
Y145000D02*
D03*
Y155000D02*
D03*
Y165000D02*
D03*
Y175000D02*
D03*
Y185000D02*
D03*
Y195000D02*
D03*
Y205000D02*
D03*
Y215000D02*
D03*
Y225000D02*
D03*
Y235000D02*
D03*
Y245000D02*
D03*
X0Y165000D02*
D03*
Y175000D02*
D03*
Y185000D02*
D03*
Y195000D02*
D03*
Y205000D02*
D03*
Y215000D02*
D03*
Y225000D02*
D03*
Y235000D02*
D03*
Y245000D02*
D03*
Y255000D02*
D03*
X-30000Y165000D02*
D03*
Y175000D02*
D03*
Y185000D02*
D03*
Y195000D02*
D03*
Y205000D02*
D03*
Y215000D02*
D03*
Y225000D02*
D03*
Y235000D02*
D03*
Y245000D02*
D03*
Y115000D02*
D03*
Y105000D02*
D03*
Y95000D02*
D03*
Y85000D02*
D03*
Y75000D02*
D03*
Y65000D02*
D03*
Y55000D02*
D03*
Y45000D02*
D03*
Y35000D02*
D03*
X0Y125000D02*
D03*
Y115000D02*
D03*
Y105000D02*
D03*
Y95000D02*
D03*
Y85000D02*
D03*
Y75000D02*
D03*
Y65000D02*
D03*
Y55000D02*
D03*
Y45000D02*
D03*
Y35000D02*
D03*
D18*
Y300000D02*
D03*
Y0D02*
D03*
D19*
X40000Y255000D02*
D03*
X-30000D02*
D03*
Y125000D02*
D03*
D20*
X-6682Y306682D02*
D03*
X-9450Y300000D02*
D03*
X-6682Y293318D02*
D03*
X0Y290550D02*
D03*
X6682Y293318D02*
D03*
X9450Y300000D02*
D03*
X6682Y306682D02*
D03*
X0Y309450D02*
D03*
Y9450D02*
D03*
X6682Y6682D02*
D03*
X9450Y0D02*
D03*
X6682Y-6682D02*
D03*
X0Y-9450D02*
D03*
X-6682Y-6682D02*
D03*
X-9450Y0D02*
D03*
X-6682Y6682D02*
D03*
D21*
X-7500Y137500D02*
D03*
X-27500D02*
D03*
Y152500D02*
D03*
X-7500D02*
D03*
Y145000D02*
D03*
X-27500D02*
D03*
X27500Y262500D02*
D03*
Y282500D02*
D03*
X20000D02*
D03*
Y262500D02*
D03*
X12500D02*
D03*
Y282500D02*
D03*
X85000Y232500D02*
D03*
Y217500D02*
D03*
X92500Y145000D02*
D03*
Y135000D02*
D03*
Y125000D02*
D03*
Y115000D02*
D03*
X32500Y255000D02*
D03*
Y245000D02*
D03*
Y235000D02*
D03*
X7500Y35000D02*
D03*
X-37500D02*
D03*
Y125000D02*
D03*
Y165000D02*
D03*
Y255000D02*
D03*
X7500Y115000D02*
D03*
Y45000D02*
D03*
Y55000D02*
D03*
Y65000D02*
D03*
X-22500Y35000D02*
D03*
Y125000D02*
D03*
X-7500Y165000D02*
D03*
X-22500Y255000D02*
D03*
X-7500Y175000D02*
D03*
Y45000D02*
D03*
X-22500D02*
D03*
Y55000D02*
D03*
Y65000D02*
D03*
Y75000D02*
D03*
Y85000D02*
D03*
Y95000D02*
D03*
Y105000D02*
D03*
Y115000D02*
D03*
X-7500D02*
D03*
Y105000D02*
D03*
Y95000D02*
D03*
Y85000D02*
D03*
Y75000D02*
D03*
M02*
