M48
;Layer_Color=9474304
;FILE_FORMAT=2:4
INCH,TZ
;TYPE=PLATED
T1F00S00C0.0100
T2F00S00C0.0200
T3F00S00C0.0450
T4F00S00C0.1350
%
T01
X9250Y11500
Y12500
Y13500
Y14500
X-750
Y13750
Y15250
X-2750
Y14500
Y13750
X-2250Y12500
Y11500
Y10500
Y9500
Y8500
Y7500
Y6500
Y5500
Y4500
Y3500
X-3750
X-750Y4500
X750
Y3500
Y5500
Y6500
X-750Y7500
Y8500
Y9500
Y10500
Y11500
X750
X-3750Y12500
Y16500
X-750
Y17500
X-2250Y25500
X-3750
X1250Y26250
X2000
X2750
X3250Y25500
Y24500
Y23500
X2750Y28250
X2000
X1250
X8500Y23250
Y21750
T02
X-668Y-668
X0Y-945
X668Y-668
X945Y0
X-945
X-668Y668
X0Y945
X668Y668
Y29332
X0Y29055
X-668Y29332
X-945Y30000
X-668Y30668
X0Y30945
X668Y30668
X945Y30000
T03
X10000Y11500
Y12500
Y13500
Y14500
Y15500
X4000
Y14500
Y13500
Y12500
Y11500
X0
Y12500
Y10500
Y9500
Y8500
Y7500
Y6500
Y5500
Y4500
Y3500
X-3000
Y4500
Y5500
Y6500
Y7500
Y8500
Y9500
Y10500
Y11500
Y12500
X-10000
Y11500
Y10500
Y9500
Y8500
Y7500
Y6500
Y5500
Y4500
Y3500
Y13500
Y14500
Y15500
Y16500
Y17500
Y18500
Y19500
Y20500
Y21500
Y22500
Y23500
Y24500
Y25500
Y26500
X-3000Y25500
Y24500
Y23500
Y22500
Y21500
Y20500
Y19500
Y18500
Y17500
Y16500
X0
Y17500
Y18500
Y19500
Y20500
Y21500
Y22500
Y23500
Y24500
Y25500
X4000
Y24500
Y23500
Y22500
Y21500
Y20500
Y19500
Y18500
Y17500
Y16500
X10000
Y17500
Y18500
Y19500
Y20500
Y21500
Y22500
Y23500
Y24500
Y25500
T04
X0Y0
Y30000
M30
